<svg width="70" height="70" viewBox="0 0 70 70" xmlns="http://www.w3.org/2000/svg">
  <g>
    <title>Layer 1</title>
    <path stroke="null" id="inner" fill="#e6e600" d="m60.52988,38.39814c6.58641,-3.37805 9.35082,-7.72209 9.47012,-11.98746c-2.14385,0.49051 -4.40929,-0.59 -5.41297,-2.76376c-1.00368,-2.17838 -0.4095,-4.72349 1.28585,-6.19734c-3.25535,-2.54048 -8.19918,-2.92688 -14.78903,0.45349c-2.37212,1.21702 -4.54694,3.17445 -6.474,5.40836c1.05874,-2.79846 1.77335,-5.71261 1.77335,-8.49025c0,-7.72788 -2.49141,-12.25123 -6.07368,-14.22832c-0.52076,2.24895 -2.42947,3.9241 -4.72129,3.9241c-2.29412,0 -4.20512,-1.67746 -4.72474,-3.92872c-3.58456,1.9794 -6.07597,6.49928 -6.07597,14.23179c0,2.77648 0.71462,5.69063 1.77221,8.4891c-1.92476,-2.23391 -4.09959,-4.19018 -6.47056,-5.4072c-6.58871,-3.38037 -11.53368,-2.99397 -14.78674,-0.45349c1.69421,1.47385 2.28953,4.02012 1.28585,6.19734c-1.00712,2.17491 -3.27026,3.25427 -5.41182,2.76376c0.11929,4.26653 2.88371,8.60941 9.46782,11.98746c3.89312,1.99675 8.94362,2.32762 13.48253,2.0465c-3.90344,2.07658 -7.87112,4.88314 -10.218,8.46133c-4.16956,6.35699 -4.55726,11.57215 -2.67494,15.35279c1.64029,-1.5421 4.11565,-1.77464 6.00141,-0.39681c1.88462,1.37783 2.54991,3.90212 1.76532,6.06314c4.01241,0.52522 8.502,-1.69713 12.66927,-8.05064c2.36753,-3.61058 3.45838,-8.5747 3.91721,-13.19755c0.45997,4.62284 1.54968,9.58696 3.91721,13.19755c4.16726,6.35352 8.65685,8.57586 12.66927,8.05064c-0.78459,-2.16103 -0.11929,-4.68531 1.76762,-6.06314s4.35997,-1.1453 6.00141,0.39681c1.88232,-3.7818 1.49462,-8.9958 -2.67494,-15.35279c-2.34803,-3.57935 -6.31571,-6.38591 -10.21915,-8.46133c4.53776,0.28112 9.58941,-0.04975 13.48138,-2.04534m-5.92571,8.83616c3.65797,5.5761 3.99865,10.15036 2.34803,13.46941c-1.44071,-1.35469 -3.61094,-1.5583 -5.265,-0.34937s-2.23791,3.42433 -1.55082,5.32043c-3.51918,0.46043 -7.45818,-1.49005 -11.11271,-7.06268c-2.07847,-3.16866 -3.03512,-7.52427 -3.43659,-11.58025c-0.40376,4.05598 -1.36041,8.41159 -3.43659,11.58025c-3.65682,5.57263 -7.59468,7.52427 -11.11385,7.06268c0.68824,-1.89611 0.10553,-4.11151 -1.55082,-5.32043c-1.65291,-1.20893 -3.82429,-1.00532 -5.26271,0.34937c-1.65062,-3.3179 -1.31109,-7.89215 2.34574,-13.46941c1.82382,-2.78227 4.76374,-5.0289 7.79312,-6.7723c0.26382,0.62587 0.82932,1.0863 1.52215,1.14183c1.00826,0.08329 1.88806,-0.70916 1.9695,-1.77232c0.00229,-0.03008 -0.00344,-0.059 -0.00229,-0.08908l4.56529,-2.09509c0.23285,0.34937 0.52076,0.65132 0.84309,0.90698l-2.12894,4.76167c-0.02638,0 -0.05391,-0.00578 -0.08029,-0.00463c-1.01056,0.0509 -1.79056,0.95326 -1.74124,2.01873c0.04474,1.06663 0.90044,1.88917 1.91329,1.83942c1.01056,-0.0509 1.79056,-0.95326 1.74124,-2.01873a1.95,1.96668 0 0 0 -0.41753,-1.13142l2.12779,-4.75588c0.29479,0.07404 0.59762,0.12494 0.91306,0.12494c0.273,0 0.53912,-0.03008 0.79606,-0.08792l1.98326,4.8172a1.95,1.96668 0 0 0 -0.4485,1.11406c-0.08029,1.06316 0.67447,1.99213 1.68274,2.07426c1.00826,0.08329 1.88806,-0.71032 1.96491,-1.77464c0.078,-1.06432 -0.67218,-1.99213 -1.68044,-2.07426c-0.02753,-0.00231 -0.05506,0.00231 -0.08259,0.00231l-1.98671,-4.82298c0.3315,-0.24641 0.61826,-0.55067 0.86144,-0.89195l4.51368,2.24779c0,0.02892 -0.00574,0.05669 -0.00459,0.08445c0.04474,1.06779 0.90044,1.88917 1.911,1.84173c0.83391,-0.0428 1.49921,-0.66404 1.68503,-1.47385c3.03971,1.74803 5.99224,3.99929 7.82179,6.78966m-7.76788,-7.37156c-0.06653,-1.04697 -0.90962,-1.85099 -1.90756,-1.8024a1.78482,1.80009 0 0 0 -1.06906,0.43961l-4.51024,-2.24548c0.07226,-0.31004 0.11929,-0.62702 0.11929,-0.95904c0,-0.28922 -0.02982,-0.57034 -0.08374,-0.84336l4.563,-2.09277c0.28676,0.26492 0.64809,0.44308 1.05759,0.47663c1.00826,0.07982 1.88806,-0.71263 1.96721,-1.77695c0.08029,-1.06316 -0.67447,-1.99213 -1.68274,-2.07542c-1.00826,-0.08445 -1.88806,0.71147 -1.96491,1.77579c-0.00229,0.02776 0.00229,0.05553 0.00229,0.08329l-4.57103,2.0974a4.01585,4.05019 0 0 0 -0.84424,-0.90814l2.12894,-4.75935c0.02753,0 0.05506,0.00578 0.08259,0.00463c1.01056,-0.0509 1.79056,-0.95326 1.74468,-2.01873c-0.04932,-1.06663 -0.90503,-1.88917 -1.91329,-1.83942c-1.01056,0.0509 -1.79056,0.95326 -1.74468,2.01873c0.02065,0.43035 0.1755,0.81675 0.41524,1.12679l-2.12894,4.76051a3.67747,3.70892 0 0 0 -0.90847,-0.1261c-0.273,0 -0.54026,0.03124 -0.79835,0.08908l-1.98326,-4.81488c0.25121,-0.3031 0.41982,-0.68602 0.45309,-1.11753c0.07571,-1.06316 -0.67676,-1.99213 -1.68503,-2.07426s-1.88691,0.71032 -1.96721,1.77464c-0.078,1.06432 0.67676,1.99213 1.68503,2.07658c0.02638,0.00231 0.05276,-0.00231 0.07915,-0.00231l1.98556,4.82182a4.02618,4.06061 0 0 0 -0.86029,0.88963l-4.51253,-2.24664c0,-0.02892 0.00574,-0.05784 0.00459,-0.08677c-0.04703,-1.06663 -0.90274,-1.88917 -1.91329,-1.83711c-1.01056,0.04859 -1.79056,0.95095 -1.74124,2.01758c0.04474,1.06779 0.90044,1.88917 1.911,1.83826c0.40835,-0.02082 0.77656,-0.1851 1.07021,-0.43845l4.50909,2.24432a4.22118,4.25727 0 0 0 -0.11929,0.96251c0,0.28806 0.02868,0.56802 0.08259,0.83989l-4.563,2.09509a1.76876,1.78389 0 0 0 -1.05644,-0.47432c-1.00826,-0.08329 -1.88806,0.71263 -1.96721,1.77579c-0.00803,0.11569 -0.00229,0.22675 0.00803,0.33896c-3.61668,0.10412 -7.46162,-0.29384 -10.50132,-1.8533c-5.77774,-2.9639 -8.20377,-6.77346 -8.307,-10.51593c1.87774,0.4292 3.86444,-0.51712 4.74768,-2.42595c0.88094,-1.90999 0.35674,-4.14274 -1.12641,-5.43612c2.85159,-2.22813 7.18977,-2.56825 12.96979,0.39796c2.07962,1.06779 3.98832,2.78458 5.67679,4.74431c-0.92797,-2.45603 -1.55426,-5.01155 -1.55426,-7.44791c0,-6.78156 2.184,-10.7473 5.33153,-12.48376c0.45424,1.97477 2.13009,3.44631 4.14203,3.44631s3.6855,-1.47038 4.14203,-3.44515c3.14294,1.7353 5.32924,5.70336 5.32924,12.48145c0,2.43521 -0.62629,4.99073 -1.55312,7.4456c1.68847,-1.95858 3.59603,-3.67537 5.67565,-4.742c5.78003,-2.96505 10.11477,-2.62609 12.97209,-0.39796c-1.48774,1.29338 -2.00735,3.52613 -1.12641,5.43612c0.88094,1.90767 2.86535,2.85515 4.74768,2.42595c-0.10324,3.74131 -2.52926,7.55203 -8.307,10.51593c-3.07756,1.58028 -6.97756,1.96668 -10.63209,1.84636" />
    <path stroke="null" id="outer" fill="#ea1aed" d="m57.97177,38.35018c5.91088,-3.00588 8.39176,-6.87133 8.49883,-10.66677c-1.92398,0.43647 -3.95706,-0.52501 -4.8578,-2.45927c-0.90073,-1.93838 -0.3675,-4.20309 1.15398,-5.51456c-2.92148,-2.26059 -7.35824,-2.60442 -13.27221,0.40353c-2.12883,1.08295 -4.08059,2.82471 -5.81,4.81251c0.95014,-2.49016 1.59147,-5.08325 1.59147,-7.55487c0,-6.87647 -2.23588,-10.90148 -5.45074,-12.66074c-0.46735,2.00118 -2.18029,3.49176 -4.23706,3.49176c-2.05883,0 -3.77383,-1.49265 -4.24015,-3.49588c-3.21691,1.76132 -5.45279,5.78324 -5.45279,12.66384c0,2.47059 0.64133,5.06368 1.59044,7.55383c-1.72736,-1.98779 -3.67912,-3.72853 -5.80691,-4.81148c-5.91294,-3.00794 -10.35074,-2.66412 -13.27015,-0.40353c1.52044,1.31147 2.05471,3.57721 1.15398,5.51456c-0.90383,1.93529 -2.93486,2.89574 -4.85677,2.45927c0.10706,3.79648 2.58794,7.66089 8.49677,10.66677c3.49382,1.77677 8.02632,2.07118 12.09971,1.82103c-3.5031,1.8478 -7.06383,4.34515 -9.17,7.52912c-3.74191,5.65662 -4.08986,10.29722 -2.4006,13.66134c1.47206,-1.37221 3.69353,-1.57912 5.38589,-0.35309c1.69132,1.22603 2.28838,3.4722 1.58426,5.39515c3.60088,0.46736 7.63,-1.51014 11.36985,-7.16368c2.12471,-3.21279 3.10368,-7.63 3.51544,-11.74354c0.41279,4.11354 1.39074,8.53075 3.51544,11.74354c3.73985,5.65354 7.76897,7.63104 11.36985,7.16368c-0.70412,-1.92294 -0.10706,-4.16912 1.58633,-5.39515s3.91279,-1.01912 5.38588,0.35309c1.68927,-3.36516 1.34133,-8.00472 -2.40059,-13.66134c-2.10721,-3.185 -5.66794,-5.68236 -9.17103,-7.52912c4.07236,0.25015 8.60589,-0.04426 12.09868,-1.82m-5.31794,7.86266c3.28279,4.96177 3.58853,9.03206 2.10721,11.98545c-1.29294,-1.20544 -3.24059,-1.38662 -4.725,-0.31089s-2.00838,3.04706 -1.39176,4.73427c-3.15824,0.4097 -6.69324,-1.32589 -9.97294,-6.28457c-1.86529,-2.81956 -2.72383,-6.6953 -3.08412,-10.30443c-0.36235,3.60912 -1.22088,7.48486 -3.08412,10.30443c-3.28176,4.95868 -6.81573,6.6953 -9.97397,6.28457c0.61764,-1.68721 0.09471,-3.65853 -1.39176,-4.73427c-1.48339,-1.07573 -3.43206,-0.89455 -4.72294,0.31089c-1.48133,-2.95236 -1.17662,-7.02265 2.10514,-11.98545c1.63677,-2.47574 4.27515,-4.47486 6.99383,-6.02619c0.23677,0.55692 0.74427,0.96662 1.36603,1.01603c0.90485,0.07411 1.69441,-0.63103 1.7675,-1.57706c0.00206,-0.02677 -0.00309,-0.0525 -0.00206,-0.07927l4.09706,-1.86427c0.20897,0.31089 0.46736,0.57956 0.75662,0.80706l-1.91059,4.23706c-0.02368,0 -0.04838,-0.00514 -0.07206,-0.00411c-0.90691,0.04529 -1.60691,0.84824 -1.56264,1.79632c0.04014,0.94912 0.80809,1.68104 1.71706,1.63677c0.90691,-0.04529 1.60691,-0.84824 1.56265,-1.79632a1.75,1.75001 0 0 0 -0.37471,-1.00677l1.90956,-4.23191c0.26456,0.06588 0.53633,0.11118 0.81941,0.11118c0.245,0 0.48383,-0.02677 0.71441,-0.07823l1.77985,4.28647a1.75,1.75001 0 0 0 -0.4025,0.99133c-0.07206,0.94603 0.6053,1.77264 1.51015,1.84573c0.90485,0.07412 1.69441,-0.63206 1.76338,-1.57911c0.07,-0.94706 -0.60323,-1.77265 -1.50809,-1.84574c-0.02471,-0.00206 -0.04941,0.00206 -0.07412,0.00206l-1.78294,-4.29163c0.2975,-0.21926 0.55485,-0.48999 0.77309,-0.79367l4.05073,2.00015c0,0.02574 -0.00514,0.05044 -0.00411,0.07515c0.04014,0.95015 0.80809,1.68104 1.715,1.63883c0.74838,-0.03809 1.34544,-0.59088 1.51221,-1.31147c2.72794,1.55545 5.37764,3.55868 7.01956,6.04163m-6.97117,-6.55943c-0.05971,-0.93161 -0.81633,-1.64705 -1.71191,-1.60383a1.60176,1.60177 0 0 0 -0.95941,0.39118l-4.04765,-1.99809c0.06486,-0.27588 0.10706,-0.55794 0.10706,-0.85338c0,-0.25736 -0.02677,-0.5075 -0.07515,-0.75044l4.095,-1.8622c0.25736,0.23573 0.58162,0.39426 0.94912,0.42412c0.90486,0.07103 1.69441,-0.63412 1.76544,-1.58118c0.07206,-0.94603 -0.60529,-1.77265 -1.51015,-1.84677c-0.90485,-0.07515 -1.69441,0.63309 -1.76338,1.58015c-0.00206,0.02471 0.00206,0.04941 0.00206,0.07412l-4.10221,1.86632a3.60397,3.60397 0 0 0 -0.75764,-0.80809l1.91059,-4.23501c0.02471,0 0.04941,0.00515 0.07412,0.00412c0.90691,-0.04529 1.60691,-0.84824 1.56574,-1.79632c-0.04427,-0.94913 -0.81221,-1.68104 -1.71706,-1.63677c-0.90691,0.04529 -1.60691,0.84823 -1.56574,1.79632c0.01853,0.38294 0.1575,0.72677 0.37265,1.00265l-1.91059,4.23603a3.30029,3.3003 0 0 0 -0.81529,-0.11221c-0.245,0 -0.48486,0.0278 -0.71647,0.07927l-1.77986,-4.28441c0.22544,-0.26971 0.37676,-0.61045 0.40662,-0.99442c0.06794,-0.94603 -0.60736,-1.77264 -1.51221,-1.84573s-1.69338,0.63206 -1.76544,1.57911c-0.07,0.94706 0.60736,1.77265 1.51221,1.8478c0.02367,0.00206 0.04736,-0.00206 0.07103,-0.00206l1.78191,4.29059a3.61324,3.61324 0 0 0 -0.77206,0.79162l-4.04971,-1.99911c0,-0.02574 0.00515,-0.05148 0.00412,-0.07721c-0.04221,-0.94912 -0.81014,-1.68103 -1.71706,-1.6347c-0.90691,0.04323 -1.60691,0.84617 -1.56265,1.79529c0.04015,0.95015 0.80809,1.68104 1.715,1.63574c0.36648,-0.01854 0.69691,-0.16471 0.96044,-0.39015l4.04662,1.99707a3.78824,3.78824 0 0 0 -0.10706,0.85647c0,0.25632 0.02574,0.50544 0.07412,0.74736l-4.095,1.86426a1.58735,1.58735 0 0 0 -0.94809,-0.42205c-0.90485,-0.07412 -1.69441,0.63412 -1.76544,1.58015c-0.0072,0.10294 -0.00206,0.20177 0.00721,0.30162c-3.24573,0.09265 -6.69632,-0.26147 -9.42426,-1.64912c-5.18515,-2.63735 -7.36236,-6.02721 -7.455,-9.35736c1.68514,0.38191 3.46809,-0.46015 4.26074,-2.15868c0.79059,-1.69956 0.32014,-3.68632 -1.01089,-4.83721c2.55912,-1.98265 6.45236,-2.2853 11.63956,0.35412c1.86633,0.95015 3.57926,2.4778 5.09456,4.22163c-0.83279,-2.18544 -1.39485,-4.45942 -1.39485,-6.62736c0,-6.03442 1.96,-9.56324 4.78471,-11.10839c0.40764,1.7572 1.91162,3.06662 3.71721,3.06662s3.3075,-1.30838 3.71721,-3.06559c2.82059,1.54412 4.78264,5.07501 4.78264,11.10633c0,2.16692 -0.56206,4.44089 -1.39382,6.62531c1.51529,-1.7428 3.22721,-3.27045 5.09352,-4.21957c5.18721,-2.63838 9.07736,-2.33677 11.64162,-0.35412c-1.33514,1.15089 -1.80147,3.13765 -1.01088,4.83721c0.79059,1.69751 2.57147,2.54059 4.26074,2.15869c-0.09265,3.32912 -2.26986,6.72 -7.455,9.35736c-2.76191,1.40618 -6.26191,1.75001 -9.54162,1.64294" />
  </g>
</svg>